<svg width="81" height="80" viewBox="0 0 81 80" fill="none" xmlns="http://www.w3.org/2000/svg">
<path fill-rule="evenodd" clip-rule="evenodd" d="M56.5 77C55.9486 77 55.5 76.5514 55.5 76C55.5 75.4486 55.9486 75 56.5 75C57.0514 75 57.5 75.4486 57.5 76C57.5 76.5514 57.0514 77 56.5 77Z" fill="#ECECFE"/>
<path fill-rule="evenodd" clip-rule="evenodd" d="M8.5 65C7.9486 65 7.5 64.5514 7.5 64C7.5 63.4486 7.9486 63 8.5 63C9.0514 63 9.5 63.4486 9.5 64C9.5 64.5514 9.0514 65 8.5 65Z" fill="#ECECFE"/>
<path fill-rule="evenodd" clip-rule="evenodd" d="M76.5 58C75.9486 58 75.5 57.5514 75.5 57C75.5 56.4486 75.9486 56 76.5 56C77.0514 56 77.5 56.4486 77.5 57C77.5 57.5514 77.0514 58 76.5 58Z" fill="#ECECFE"/>
<path fill-rule="evenodd" clip-rule="evenodd" d="M65.5 10C64.9486 10 64.5 9.5514 64.5 9C64.5 8.44855 64.9486 8 65.5 8C66.0514 8 66.5 8.44855 66.5 9C66.5 9.5514 66.0514 10 65.5 10Z" fill="#ECECFE"/>
<path fill-rule="evenodd" clip-rule="evenodd" d="M24.5 4C23.9486 4 23.5 3.5514 23.5 3C23.5 2.44855 23.9486 2 24.5 2C25.0514 2 25.5 2.44855 25.5 3C25.5 3.5514 25.0514 4 24.5 4Z" fill="#ECECFE"/>
<path d="M37.596 15.6808C38.0128 16.8193 37.6301 18.1563 36.8759 18.7891C36.5547 19.0587 36.2714 19.2178 35.7893 19.3644L35.4743 19.4516C35.4172 19.4661 35.3577 19.4807 35.2954 19.4955L34.8876 19.587L32.9642 19.9802L32.7225 20.0317L32.8574 20.1023L33.1028 20.2354L33.5712 20.499C34.0495 20.7751 34.2134 21.3867 33.9372 21.865C33.6611 22.3433 33.0495 22.5071 32.5712 22.231L32.3576 22.1093L31.9116 21.8645L30.3778 21.0623L29.692 20.6967C29.5786 20.6354 29.4651 20.5737 29.3507 20.511L28.6463 20.1193L27.8798 19.6817C27.4015 19.4056 27.2376 18.794 27.5137 18.3157C27.7899 17.8374 28.4015 17.6735 28.8798 17.9496L29.6264 18.3759C29.7446 18.4426 29.8603 18.5073 29.9742 18.5707L30.1091 18.6446C30.2103 18.5736 30.3265 18.5203 30.4542 18.4903L31.001 18.3634L32.045 18.1312L32.8141 17.9685L34.3958 17.6469L34.8423 17.5478L35.0641 17.4914L35.2365 17.4397C35.2616 17.4314 35.2851 17.4231 35.3072 17.4148L35.4236 17.3651L35.5147 17.3134L35.5904 17.257C35.7101 17.1566 35.8401 16.7022 35.7179 16.3683C35.5122 15.8062 34.7 15.3239 32.988 15.1306L29.6047 14.7832L27.7401 14.5986L25.6611 14.4015L23.5359 14.2143L22.5769 14.1381L22.4214 14.1406L22.3052 14.1522L22.1075 14.1861L21.9575 14.2206L21.7908 14.2654L21.5055 14.3534L21.0497 14.513L20.4947 14.7255L19.8258 14.9964L18.5775 15.5233L16.3058 16.5098L16.1978 16.5473L16.1246 16.5651L16.0478 16.5763C16.0346 16.5776 16.0211 16.5785 16.0074 16.5791L15.9214 16.5788L15.8264 16.5699L15.7205 16.5515L15.6013 16.5229L15.3932 16.4591L15.2318 16.4014L14.9501 16.2904L14.7329 16.1988L14.2182 15.9698L13.402 15.5898L11.0663 14.47C10.5688 14.2302 10.36 13.6324 10.5998 13.135C10.8396 12.6375 11.4374 12.4286 11.9348 12.6684L13.6876 13.5048L14.399 13.8369L15.1759 14.1902L15.6473 14.3955L15.9073 14.5009L17.9276 13.6236L19.0651 13.1418L19.6406 12.9063L20.2999 12.6495L20.5886 12.5438L20.9773 12.4115L21.3198 12.3084L21.5266 12.2545L21.7189 12.2116L21.899 12.1789L22.0695 12.1557L22.2327 12.1411C22.2594 12.1393 22.2859 12.1379 22.3123 12.1368L22.5467 12.1348L22.7791 12.1468L24.0268 12.2485L26.2324 12.4459L28.838 12.6968L32.3822 13.0571L32.9328 13.1145C35.4968 13.3502 37.0707 14.2457 37.596 15.6808Z" fill="#417DC4"/>
<path d="M26.2928 36.048C26.7524 36.2467 27.2981 36.0736 27.5545 35.6295C27.8307 35.1512 27.6668 34.5396 27.1885 34.2635L24.2499 32.5669L24.1455 32.5144C23.6859 32.3157 23.1403 32.4888 22.8839 32.9329C22.6077 33.4112 22.7716 34.0228 23.2499 34.2989L26.1885 35.9955L26.2928 36.048Z" fill="#417DC4"/>
<path d="M20.9848 38.2483C20.7284 38.6924 20.1827 38.8655 19.7232 38.6668L19.6188 38.6143L15.1429 36.0302C14.9917 35.9429 14.7861 35.7403 14.5423 35.4455L14.3243 35.1709C14.2865 35.1216 14.248 35.0705 14.2089 35.0177L13.967 34.6815L13.7119 34.3082L13.4459 33.9012L13.1713 33.4637C13.1249 33.3884 13.0782 33.312 13.0314 33.2345L12.7479 32.7572L12.4614 32.2576L12.174 31.7387C12.1261 31.6508 12.0784 31.5623 12.0307 31.4731L11.7463 30.9316C11.6992 30.8403 11.6523 30.7486 11.6057 30.6565L11.3293 30.0996L11.061 29.5365L10.8031 28.9704L10.5577 28.4045C10.4783 28.2163 10.4014 28.0287 10.3273 27.8422L10.2035 27.5233L9.2463 26.7962L7.23178 25.2893L6.86713 25.0073L6.65981 24.8381L6.56985 24.7571L6.48186 24.6701L6.44957 24.628L6.37609 24.4989L6.2883 24.3329C6.1044 23.8121 6.37748 23.2409 6.89825 23.057C7.25878 22.9297 7.64351 23.0214 7.90715 23.2627L7.96897 23.3257L8.24844 23.5485L11.1847 25.7537L11.5032 26.0028L11.6678 26.141L11.796 26.264L11.8279 26.3048L11.871 26.376L11.9894 26.5921C12.7081 28.5328 13.6714 30.4476 14.7294 32.1668L14.9005 32.4418L15.2363 32.963C15.4011 33.213 15.5605 33.4458 15.7107 33.6566L15.9574 33.9944L16.133 34.2213L16.2206 34.3292C16.2249 34.337 16.2204 34.3395 16.1869 34.3224L20.6188 36.8823C21.0971 37.1584 21.261 37.77 20.9848 38.2483Z" fill="#417DC4"/>
<path d="M23.4999 39.9999C24.0522 39.9999 24.4999 39.5522 24.4999 38.9999C24.4999 38.4476 24.0522 37.9999 23.4999 37.9999C22.9476 37.9999 22.4999 38.4476 22.4999 38.9999C22.4999 39.5522 22.9476 39.9999 23.4999 39.9999Z" fill="#417DC4"/>
<path d="M54.9184 42.6614C54.6422 42.1831 54.8061 41.5715 55.2844 41.2954L55.4966 41.1713L55.9316 40.9074L57.724 39.7727C57.8337 39.7043 57.943 39.6366 58.0527 39.569L58.7235 39.1617L59.4454 38.735C59.5721 38.661 59.7027 38.5852 59.8379 38.5071C60.3162 38.231 60.9278 38.3949 61.2039 38.8732C61.48 39.3515 61.3162 39.963 60.8379 40.2392L60.0954 40.6727L59.7072 40.9052C59.7008 40.9374 59.6928 40.9696 59.6832 41.0017C59.5729 41.3675 59.4655 41.7164 59.3587 42.0559L59.0384 43.0532L58.3907 44.998L58.3054 45.2731L58.2433 45.4934L58.2019 45.6685L58.1956 45.7002C58.1928 45.7146 58.1903 45.7286 58.1881 45.7422L58.1729 45.8678L58.1721 45.9726L58.1831 46.0663C58.2103 46.2203 58.5387 46.5601 58.889 46.6212C59.4787 46.724 60.3024 46.2618 61.3259 44.8759L63.6017 41.7255L65.3924 39.2176L66.4648 37.6947L67.1986 36.6376C67.2551 36.5555 67.3105 36.4748 67.3648 36.3957C67.5245 36.1626 67.683 35.7848 67.8369 35.2674L67.9388 34.9018L68.0391 34.4951L68.1376 34.0477L68.2341 33.5599L68.3284 33.032L68.4202 32.4644L68.5094 31.8574C68.524 31.7529 68.5385 31.6469 68.5529 31.5392L68.6376 30.8737L68.7192 30.1696C68.7234 30.1309 68.7282 30.094 68.7343 30.0582L68.758 29.9531L68.7814 29.8838L68.8322 29.7773L68.8792 29.7023L68.9386 29.6223L69.0548 29.4896L69.1529 29.3904L69.3354 29.2215L69.6535 28.9509L70.3194 28.4222L71.6321 27.4234L72.996 26.3995C73.438 26.0683 74.0647 26.158 74.396 26.5999C74.7272 27.0418 74.6375 27.6686 74.1956 27.9998L72.4053 29.354L71.4685 30.0797L71.0306 30.4287L70.6691 30.7305L70.5673 31.5639C70.5511 31.6906 70.5346 31.8153 70.518 31.9382L70.416 32.6529C70.068 34.9608 69.641 36.5239 69.0941 37.4043L69.0144 37.5265L68.3024 38.5562L67.4807 39.7283L66.0427 41.7529L63.7426 44.9487L63.0994 45.836C61.6133 47.9387 60.0509 48.854 58.5454 48.5914C57.351 48.3831 56.3845 47.3832 56.2135 46.4136C56.1334 45.9594 56.1461 45.6116 56.2962 45.0325L56.3921 44.6917L56.5168 44.2928L57.1039 42.5323L56.9848 42.6077L56.515 42.8926C56.4382 42.9381 56.3616 42.9829 56.2844 43.0275C55.8061 43.3036 55.1945 43.1397 54.9184 42.6614Z" fill="#417DC4"/>
<path d="M64.827 19.8271L62.2838 20.9492L61.8 21.1502L61.6037 21.2211C61.4238 21.2789 61.3335 21.302 61.1715 21.2849L61.0644 21.2698C59.0301 20.9256 56.8979 20.8045 54.8889 20.8617L54.5665 20.8725L53.9499 20.9027L53.3799 20.9432C53.2894 20.9507 53.2014 20.9585 53.1159 20.9667L52.702 21.0114L52.4191 21.0499L52.2829 21.0716C52.2743 21.0714 52.2745 21.0663 52.3062 21.0458L45.9999 24.6856C45.5216 24.9617 44.91 24.7978 44.6338 24.3195C44.3774 23.8754 44.5004 23.3163 44.9022 23.0176L44.9999 22.9535L51.3492 19.2877C51.5476 19.1732 51.9656 19.0768 52.5393 19.0039L52.9441 18.9589C53.0152 18.952 53.088 18.9454 53.1625 18.9391L53.6286 18.9051L54.1304 18.8789L54.6635 18.8609C54.7547 18.8586 54.8471 18.8566 54.9405 18.855L55.5129 18.8498L56.1061 18.8536L56.7161 18.8668L57.3385 18.8897L57.9692 18.9225L58.6039 18.9658L59.2386 19.0197L59.8688 19.0847C60.1822 19.12 60.4924 19.1596 60.7969 19.2037L61.148 19.2574L61.3645 19.1671L64.129 17.9502L64.3995 17.836L64.6104 17.7512L64.7477 17.7005L64.8077 17.6806C65.0267 17.6114 65.1172 17.5919 65.3585 17.6368C65.9014 17.738 66.2596 18.2601 66.1585 18.803C66.0573 19.346 65.5352 19.7042 64.9923 19.603C65.0597 19.6156 65.1017 19.6277 65.1301 19.6375L65.1858 19.6585C65.2049 19.6638 65.2195 19.66 65.2691 19.6409L64.827 19.8271Z" fill="#417DC4"/>
<path d="M49.4999 27.9999C50.0522 27.9999 50.4999 27.5522 50.4999 26.9999C50.4999 26.4476 50.0522 25.9999 49.4999 25.9999C48.9476 25.9999 48.4999 26.4476 48.4999 26.9999C48.4999 27.5522 48.9476 27.9999 49.4999 27.9999Z" fill="#417DC4"/>
<path d="M42.4949 27.308C42.3952 25.4643 40.8687 24 39.0001 24C37.0671 24 35.5001 25.567 35.5001 27.5V29.3368C35.0455 29.1208 34.5369 29 34.0001 29C32.0671 29 30.5001 30.567 30.5001 32.5V47.385L29.8918 46.6707L28.6697 45.2122L28.0487 44.4827L27.6736 44.0583L27.4585 43.8263L27.2666 43.6304C27.2363 43.6005 27.2067 43.572 27.1779 43.5447L27.0124 43.3954C26.933 43.3276 26.8583 43.2696 26.7857 43.2191L26.6427 43.1276C26.572 43.0862 26.5018 43.0508 26.4297 43.0192L26.2823 42.9604C25.3571 42.6236 24.0079 42.9607 23.2303 43.8909C22.2501 45.0634 22.2616 46.8742 23.3395 49.2125L24.8293 52.5344L26.2766 55.7103L27.0425 57.3583L27.5783 58.4898L27.6487 58.629C27.9886 59.2677 28.6203 60.0294 29.5524 60.9323L30.004 61.3591C30.3193 61.6504 30.6632 61.9553 31.036 62.2744L31.6167 62.7637C31.8175 62.9304 32.0255 63.1007 32.2408 63.2747L32.4994 63.4826L32.4997 67.0002L32.5074 67.1256C32.5691 67.6187 32.9898 68.0002 33.4997 68.0002C34.0519 68.0002 34.4997 67.5524 34.4997 67.0002V62.5156L33.8319 61.9872L33.0212 61.3293L32.524 60.9133L32.0615 60.5159L31.634 60.1372L31.2415 59.7776L30.8843 59.4375C30.7711 59.3274 30.6638 59.2206 30.5624 59.1171L30.2761 58.8168L30.0254 58.5368L29.8105 58.2774C29.6137 58.0285 29.4707 57.8111 29.3824 57.6266L28.9904 56.8006L28.2507 55.2149L27.0344 52.5563L25.0578 48.1567C24.3693 46.5774 24.3809 45.6329 24.7648 45.1736C24.9928 44.9008 25.4513 44.7863 25.5982 44.8397C25.6115 44.8446 25.6284 44.8542 25.6492 44.8689L25.7235 44.9286L25.8226 45.0211L26.1025 45.3124L26.5023 45.7596L27.0354 46.3792L28.3695 47.968L28.9042 48.5981L29.3892 49.1599L29.8471 49.6784L30.3002 50.1785L30.771 50.6851C31.0178 50.9476 31.3729 51.0471 31.7016 50.9797C31.726 50.9747 31.7501 50.9688 31.7739 50.9621C32.1931 50.843 32.5001 50.4574 32.5001 50V32.5L32.507 32.3555C32.5796 31.5949 33.2204 31 34.0001 31C34.8285 31 35.5001 31.6716 35.5001 32.5V45L35.5068 45.1166C35.5646 45.614 35.9873 46 36.5001 46C37.0524 46 37.5001 45.5523 37.5001 45V27.5L37.507 27.3555C37.5796 26.5949 38.2204 26 39.0001 26C39.8285 26 40.5001 26.6716 40.5001 27.5V45L40.5068 45.1166C40.5646 45.614 40.9873 46 41.5001 46C42.0524 46 42.5001 45.5523 42.5001 45V30.4706L42.5069 30.3294C42.5794 29.5856 43.2179 29 44.0001 29C44.8312 29 45.5001 29.6611 45.5001 30.4706V45L45.5068 45.1166C45.5646 45.614 45.9873 46 46.5001 46C47.0524 46 47.5001 45.5523 47.5001 45V34.4706L47.5069 34.3294C47.5794 33.5856 48.2179 33 49.0001 33C49.8312 33 50.5001 33.6611 50.5001 34.4706V53L50.4967 53.291C50.4538 55.1073 49.9913 56.4403 48.6655 58.4492C48.5219 58.6667 48.2756 58.9554 47.9288 59.3158L47.607 59.6423L47.2364 60.0041L46.8663 60.3552L45.4986 61.6198L44.9887 62.1007L44.5001 62.5858V67L44.5068 67.1166C44.5646 67.614 44.9873 68 45.5001 68L45.6167 67.9933C46.1141 67.9355 46.5001 67.5128 46.5001 67V63.422L46.5994 63.3284L48.2355 61.813L48.6386 61.4304L49.0592 61.0193C49.6505 60.4298 50.0656 59.9585 50.3347 59.5508C51.9392 57.1198 52.5001 55.3747 52.5001 53V34.4706L52.4949 34.2799C52.395 32.4495 50.8661 31 49.0001 31C48.4636 31 47.9549 31.1198 47.5001 31.3341V30.4706L47.4949 30.2799C47.395 28.4495 45.8661 27 44.0001 27C43.4618 27 42.9516 27.1206 42.4957 27.3362L42.4949 27.308Z" fill="#000091"/>
</svg>
