<svg width="81" height="80" viewBox="0 0 81 80" fill="none" xmlns="http://www.w3.org/2000/svg">
<path d="M54.5367 40.7318C54.6848 40.1997 55.2362 39.8885 55.7682 40.0367C58.1078 40.6881 59.9014 42.523 60.3762 44.7982C60.489 45.3389 60.1422 45.8686 59.6016 45.9814C59.061 46.0943 58.5312 45.7475 58.4184 45.2068C58.0998 43.6804 56.8664 42.4185 55.2318 41.9633C54.6997 41.8152 54.3885 41.2638 54.5367 40.7318Z" fill="#417DC4"/>
<path fill-rule="evenodd" clip-rule="evenodd" d="M44.5 46C44.5 40.4848 48.985 36 54.5 36C60.015 36 64.5 40.4848 64.5 46C64.5 48.5661 63.5289 50.9093 61.9349 52.6814L67.8301 62.8923C68.6586 64.3272 68.1669 66.162 66.7321 66.9904C65.3484 67.7892 63.5929 67.3606 62.7265 66.0424L62.634 65.8923L56.7724 55.7397C56.0421 55.91 55.2814 56 54.5 56C48.9851 56 44.5 51.5149 44.5 46ZM58.6984 55.0757L64.366 64.8923C64.6422 65.3706 65.2538 65.5345 65.7321 65.2583C66.1762 65.0019 66.3492 64.4563 66.1506 63.9967L66.0981 63.8923L60.4191 54.056C59.8836 54.4505 59.3076 54.7929 58.6984 55.0757ZM62.5 46C62.5 41.5894 58.9105 38 54.5 38C50.0895 38 46.5 41.5894 46.5 46C46.5 50.4103 50.0897 54 54.5 54C58.9103 54 62.5 50.4103 62.5 46Z" fill="#417DC4"/>
<path d="M69.4933 17.8834C69.4355 17.386 69.0128 17 68.5 17H14.5L14.3834 17.0067C13.886 17.0645 13.5 17.4872 13.5 18V64L13.5067 64.1166C13.5645 64.614 13.9872 65 14.5 65H56.5L56.6166 64.9933C57.114 64.9355 57.5 64.5128 57.5 64L57.4933 63.8834C57.4355 63.386 57.0128 63 56.5 63H15.5V27H52.5L52.6166 26.9933C53.114 26.9355 53.5 26.5128 53.5 26C53.5 25.4477 53.0523 25 52.5 25H15.5V19H67.5V25H58.5L58.3834 25.0067C57.886 25.0645 57.5 25.4872 57.5 26C57.5 26.5523 57.9477 27 58.5 27H67.5V56L67.5067 56.1166C67.5645 56.614 67.9872 57 68.5 57C69.0523 57 69.5 56.5523 69.5 56V18L69.4933 17.8834Z" fill="#000091"/>
<path d="M18.5 23C17.9486 23 17.5 22.5514 17.5 22C17.5 21.4486 17.9486 21 18.5 21C19.0514 21 19.5 21.4486 19.5 22C19.5 22.5514 19.0514 23 18.5 23Z" fill="#000091"/>
<path d="M21.5 22C21.5 22.5514 21.9486 23 22.5 23C23.0514 23 23.5 22.5514 23.5 22C23.5 21.4486 23.0514 21 22.5 21C21.9486 21 21.5 21.4486 21.5 22Z" fill="#000091"/>
<path d="M26.5 23C25.9486 23 25.5 22.5514 25.5 22C25.5 21.4486 25.9486 21 26.5 21C27.0514 21 27.5 21.4486 27.5 22C27.5 22.5514 27.0514 23 26.5 23Z" fill="#000091"/>
<path d="M64.5 21C65.0523 21 65.5 21.4477 65.5 22C65.5 22.5128 65.114 22.9355 64.6166 22.9933L64.5 23H34.5C33.9477 23 33.5 22.5523 33.5 22C33.5 21.4872 33.886 21.0645 34.3834 21.0067L34.5 21H64.5Z" fill="#000091"/>
<path d="M41.5 34C41.5 33.4477 41.0523 33 40.5 33H22.5L22.3834 33.0067C21.886 33.0645 21.5 33.4872 21.5 34C21.5 34.5523 21.9477 35 22.5 35H40.5L40.6166 34.9933C41.114 34.9355 41.5 34.5128 41.5 34Z" fill="#000091"/>
<path d="M36.5 39C37.0523 39 37.5 39.4477 37.5 40C37.5 40.5128 37.114 40.9355 36.6166 40.9933L36.5 41H22.5C21.9477 41 21.5 40.5523 21.5 40C21.5 39.4872 21.886 39.0645 22.3834 39.0067L22.5 39H36.5Z" fill="#000091"/>
<path d="M35.5 46C35.5 45.4477 35.0523 45 34.5 45H22.5L22.3834 45.0067C21.886 45.0645 21.5 45.4872 21.5 46C21.5 46.5523 21.9477 47 22.5 47H34.5L34.6166 46.9933C35.114 46.9355 35.5 46.5128 35.5 46Z" fill="#000091"/>
</svg>
